<svg width="39" height="38" viewBox="0 0 39 38" fill="none" xmlns="http://www.w3.org/2000/svg">
<g filter="url(#filter0_d_1_68)">
<path d="M29.8016 26.5206L20.9612 9.88461C20.3346 8.70513 18.6654 8.70513 18.0383 9.88461L9.19839 26.5206C9.06232 26.7767 8.9941 27.0641 9.0004 27.3548C9.00669 27.6456 9.08727 27.9297 9.23424 28.1794C9.38125 28.4292 9.58964 28.6361 9.8391 28.7799C10.0885 28.9237 10.3705 28.9995 10.6575 29H28.3399C28.6271 29 28.9094 28.9245 29.1592 28.7809C29.409 28.6373 29.6178 28.4305 29.7651 28.1806C29.9123 27.9307 29.9932 27.6464 29.9996 27.3555C30.0059 27.0645 29.9378 26.7769 29.8016 26.5206ZM19.5 26.4244C19.2948 26.4244 19.0943 26.3627 18.9236 26.2472C18.753 26.1318 18.62 25.9675 18.5416 25.7755C18.463 25.5833 18.4425 25.372 18.4825 25.1681C18.5225 24.9642 18.6213 24.7768 18.7664 24.6298C18.9115 24.4828 19.0964 24.3827 19.2976 24.3421C19.4988 24.3015 19.7075 24.3224 19.897 24.4019C20.0866 24.4815 20.2486 24.6162 20.3626 24.7891C20.4766 24.962 20.5374 25.1652 20.5374 25.3732C20.5374 25.5112 20.5106 25.6479 20.4585 25.7755C20.4063 25.903 20.3299 26.0189 20.2336 26.1165C20.1372 26.2141 20.0228 26.2916 19.897 26.3444C19.7711 26.3972 19.6362 26.4244 19.5 26.4244ZM20.6266 15.8515L20.3289 22.2641C20.3289 22.4871 20.2415 22.7011 20.0858 22.8588C19.9301 23.0165 19.7191 23.1051 19.4989 23.1051C19.2788 23.1051 19.0678 23.0165 18.9121 22.8588C18.7564 22.701 18.669 22.4871 18.669 22.2641L18.3712 15.8541C18.3646 15.7009 18.3883 15.548 18.4413 15.4044C18.4942 15.2607 18.575 15.1293 18.6791 15.018C18.7832 14.9067 18.9083 14.8178 19.047 14.7565C19.1857 14.6953 19.3352 14.663 19.4865 14.6615H19.4974C19.6497 14.6614 19.8004 14.6926 19.9407 14.7532C20.0808 14.8137 20.2072 14.9025 20.3126 15.014C20.4179 15.1255 20.4999 15.2575 20.5535 15.402C20.6071 15.5464 20.6313 15.7005 20.6245 15.8546L20.6266 15.8515Z" fill="#B80D0D"/>
<path d="M18.4795 10.1191C18.9186 9.2933 20.081 9.29379 20.5195 10.1191L29.3604 26.7549C29.4563 26.9354 29.5045 27.1389 29.5 27.3447C29.4966 27.4987 29.4632 27.6499 29.4033 27.79L29.334 27.9268C29.2303 28.1025 29.0843 28.2475 28.9102 28.3477C28.7359 28.4479 28.5392 28.5 28.3398 28.5H10.6582C10.5089 28.4998 10.3614 28.4701 10.2236 28.4131L10.0889 28.3467L9.96387 28.2637C9.84439 28.1724 9.74268 28.0577 9.66504 27.9258C9.56165 27.7501 9.50445 27.5493 9.5 27.3438C9.49559 27.1384 9.54381 26.9353 9.63965 26.7549L18.4795 10.1191ZM20.0908 23.9404C19.8093 23.8223 19.4987 23.7913 19.1992 23.8516H19.1982C18.899 23.912 18.6247 24.0609 18.4102 24.2783C18.1958 24.4956 18.051 24.7719 17.9922 25.0713C17.9333 25.371 17.9635 25.6821 18.0791 25.9648C18.1946 26.2474 18.3907 26.49 18.6436 26.6611C18.8965 26.8323 19.1944 26.9248 19.5 26.9248C19.7029 26.9248 19.904 26.884 20.0908 26.8057C20.2776 26.7272 20.4474 26.6121 20.5898 26.4678C20.7323 26.3234 20.8442 26.1522 20.9209 25.9648H20.9219C20.9985 25.7771 21.0371 25.5757 21.0371 25.373C21.0371 25.0678 20.9484 24.7686 20.7803 24.5137C20.6122 24.2587 20.3725 24.0587 20.0908 23.9404ZM20.7617 14.7705C20.7343 14.7363 20.706 14.7029 20.6758 14.6709C20.5242 14.5105 20.3415 14.3816 20.1387 14.2939C19.936 14.2065 19.7177 14.1611 19.4971 14.1611H19.4814C19.2622 14.1633 19.0454 14.2102 18.8447 14.2988C18.6443 14.3874 18.4644 14.5165 18.3145 14.6768H18.3135C18.2012 14.7969 18.1077 14.9328 18.0361 15.0801L17.9717 15.2314C17.8958 15.4375 17.8625 15.6568 17.8721 15.876V15.877L18.1699 22.2871C18.1758 22.6323 18.3133 22.9634 18.5566 23.21C18.8055 23.4621 19.1443 23.6055 19.499 23.6055C19.8539 23.6054 20.1925 23.462 20.4414 23.21C20.6847 22.9634 20.8223 22.6322 20.8281 22.2871L21.126 15.875L21.207 14.1221L20.7617 14.7705Z" stroke="black"/>
</g>
<defs>
<filter id="filter0_d_1_68" x="0.9" y="0.9" width="37.2" height="36.2" filterUnits="userSpaceOnUse" color-interpolation-filters="sRGB">
<feFlood flood-opacity="0" result="BackgroundImageFix"/>
<feColorMatrix in="SourceAlpha" type="matrix" values="0 0 0 0 0 0 0 0 0 0 0 0 0 0 0 0 0 0 127 0" result="hardAlpha"/>
<feOffset/>
<feGaussianBlur stdDeviation="4.05"/>
<feComposite in2="hardAlpha" operator="out"/>
<feColorMatrix type="matrix" values="0 0 0 0 0 0 0 0 0 0 0 0 0 0 0 0 0 0 0.25 0"/>
<feBlend mode="normal" in2="BackgroundImageFix" result="effect1_dropShadow_1_68"/>
<feBlend mode="normal" in="SourceGraphic" in2="effect1_dropShadow_1_68" result="shape"/>
</filter>
</defs>
</svg>
